<svg id="Capa_1" enable-background="new 0 0 497 497" height="512" viewBox="0 0 497 497" width="512" xmlns="http://www.w3.org/2000/svg"><g><path d="m299.331 0h-38.124l-29.733 45.572 29.733 45.572h38.124c11.787 0 21.342-9.555 21.342-21.342v-48.46c.001-11.787-9.555-21.342-21.342-21.342z" fill="#ff6f7f"/><path d="m201.741 91.144h-59.466l-18.34-45.572 18.34-45.572h59.466l29.733 45.572z" fill="#7292df"/><path d="m405.06 393.147c0 34.322-86.978 62.146-194.27 62.146s-194.271-27.824-194.271-62.146v-176.497h388.541z" fill="#ffca8a"/><path d="m44.041 294.559c0-27.34 4.758-53.564 13.47-77.909h-40.992v176.497c0 20.978 32.495 39.526 82.258 50.78-34.137-40.294-54.736-92.422-54.736-149.368z" fill="#ffbe73"/><ellipse cx="210.79" cy="216.65" fill="#f9f097" rx="194.271" ry="62.146"/><path d="m120.415 0c-8.185 0-14.82 6.635-14.82 14.82v183.49c0 10.129 8.211 18.34 18.34 18.34 10.129 0 18.34-8.211 18.34-18.34v-198.31z" fill="#e8a882"/><circle cx="283.636" cy="210.692" fill="#ffca8a" r="22.428"/><circle cx="201.741" cy="228.341" fill="#ffca8a" r="17.858"/><path d="m349.612 276.137c-20.967 0-40.679 8.165-55.505 22.991l-144.411 144.411c-2.433 2.433-4.548 5.088-6.339 7.906 21.007 2.487 43.722 3.848 67.432 3.848 107.293 0 194.271-27.824 194.271-62.146v-117.01z" fill="#ffbe73"/><path d="m311.785 316.805-144.411 144.412c-13.205 13.205-3.853 35.783 14.822 35.783h143.133l93.595-58.199 61.557-137.664h-130.868c-14.188 0-27.795 5.636-37.828 15.668z" fill="#f9f097"/><path d="m313.405 468.213c-10.623 10.623-3.1 28.787 11.924 28.787h106.304c26.978 0 48.848-21.87 48.848-48.848v-147.015z" fill="#ffca8a"/><g><g><path d="m72.476 348.506c-4.142 0-7.5-3.358-7.5-7.5v-14.964c0-4.142 3.358-7.5 7.5-7.5s7.5 3.358 7.5 7.5v14.964c0 4.142-3.358 7.5-7.5 7.5z" fill="#423e4f"/></g><g><path d="m228.217 348.506c-4.142 0-7.5-3.358-7.5-7.5v-14.964c0-4.142 3.358-7.5 7.5-7.5s7.5 3.358 7.5 7.5v14.964c0 4.142-3.358 7.5-7.5 7.5z" fill="#423e4f"/></g><g><path d="m150.346 357.413c-10.036 0-19.58-4.347-26.185-11.926-2.721-3.123-2.396-7.86.727-10.582 3.123-2.721 7.861-2.396 10.582.727 3.755 4.309 9.177 6.78 14.876 6.78 5.698 0 11.121-2.471 14.876-6.781 2.721-3.123 7.458-3.448 10.582-.726 3.123 2.722 3.448 7.459.726 10.582-6.605 7.58-16.148 11.926-26.184 11.926z" fill="#423e4f"/></g></g><circle cx="345.441" cy="360.904" fill="#ffca8a" r="22.42"/><circle cx="282.549" cy="414.566" fill="#ffca8a" r="18.103"/><path d="m201.741 0h59.466v91.144h-59.466z" fill="#eaeaea"/><path d="m79.988 170.701c-38.995 11.367-63.469 27.743-63.469 45.949 0 12.563 11.663 24.252 31.698 34.027 5.561-28.939 16.508-55.961 31.771-79.976z" fill="#f8e86a"/></g></svg>